inDegrees=yes
name=ik_MT_2026-09-05_11h40_01210270-000-000_orientations
DataType=double
version=3
OpenSimVersion=4.5
endheader
time	pelvis_tilt	pelvis_list	pelvis_rotation	pelvis_tx	pelvis_ty	pelvis_tz	hip_flexion_r	hip_adduction_r	hip_rotation_r	knee_angle_r	knee_angle_r_beta	ankle_angle_r	subtalar_angle_r	mtp_angle_r	hip_flexion_l	hip_adduction_l	hip_rotation_l	knee_angle_l	knee_angle_l_beta	ankle_angle_l	subtalar_angle_l	mtp_angle_l	lumbar_extension	lumbar_bending	lumbar_rotation	arm_flex_r	arm_add_r	arm_rot_r	elbow_flex_r	pro_sup_r	wrist_flex_r	wrist_dev_r	arm_flex_l	arm_add_l	arm_rot_l	elbow_flex_l	pro_sup_l	wrist_flex_l	wrist_dev_l
126.625	-1.216837423691834	4.393214587380452	-1984.141641758408	0	0.9399999999999999	0	-25.51067842235005	7.915595983668625	20.71404970981299	-33.87287761842567	-0.5911932415666233	-1.35665086644783	0	0	28.29681813461983	9.976410581229656	-13.50826332862892	67.98655881879495	1.186589298488759	-6.699026658677568	0	0	-5.18771469574165	7.581568920670438	1.065333817301459	8.000500872399684	-11.26828107300639	14.91529404517612	2.417618569777103	45.00000025534055	0	0	-12.29120100861963	4.995408032873731	18.86116788962562	69.33527193740831	45.00000025534055	0	0
126.65	-1.434794401167983	3.652836646254089	-1984.445658865793	0	0.9399999999999999	0	-26.37702529384173	6.521945680066605	20.85141917564459	-33.90162768976063	-0.5916950249716018	-0.6753586723527069	0	0	29.41204857041683	8.715821497592273	-12.64454389233818	68.37346460290476	1.193342078316485	-5.847464099749796	0	0	-5.628828051050122	7.013735101553697	1.144901613065813	9.700680520779368	-11.60622012201842	16.18615339252812	2.20878100547269	45.00000025534055	0	0	-11.93568221513567	5.155655931243609	18.71132850178197	69.45931562300647	45.00000025534055	0	0
126.675	-1.939874501904097	2.647227128075608	-1984.714958197322	0	0.9399999999999999	0	-27.47088816319534	4.852452143270279	20.89049107705768	-34.03303229461223	-0.5939884679785442	-0.1352295699090653	0	0	30.20331145755775	8.049381389332563	-11.18846072009465	67.64424023680739	1.180614712142318	-4.598724384529394	0	0	-6.404695326445903	6.129121402738342	1.141459484921138	11.42372745709318	-11.87916540204775	17.37756146946396	1.946363576392653	45.00000025534055	0	0	-11.51024568665275	5.353795873325693	18.45702681221325	69.55058886155989	45.00000025534055	0	0
126.7	-2.537023908600756	1.787905906493743	-1985.050492146572	0	0.9399999999999999	0	-28.63350211579867	3.315543504072803	20.83940118621568	-34.18631085880191	-0.5966636835963837	0.2297162133294778	0	0	30.84241579791167	7.439996937489898	-9.317241434267807	65.89820933955846	1.150140724143773	-3.268468514780863	0	0	-7.28144536201244	5.273989995090737	1.165911979533171	13.02370924817916	-12.04822321591197	18.59410035190302	1.901936893644733	45.00000025534055	0	0	-11.09783376698773	5.502697976176628	18.00967749160446	69.50566908558568	45.00000025534055	0	0
126.725	-2.818892472911347	1.223324899180807	-1985.352338857665	0	0.9399999999999999	0	-29.41044598080094	2.107774293018379	20.73785060053208	-34.2535497691109	-0.5978372239667286	0.3979044048122943	0	0	31.42035071658462	6.63818916499592	-7.668624492879131	62.92553452311048	1.098257761005638	-2.204728415663359	0	0	-7.80949271017001	4.711237268152128	0.9606326176397122	14.48752918867149	-12.08256392293492	19.94339872499736	2.024390727950971	45.00000025534055	0	0	-10.73989362004782	5.699952813163921	17.27272467266914	69.39693898554079	45.00000025534055	0	0
126.75	-2.907529308642706	0.9103142857918622	-1985.447097361305	0	0.9399999999999999	0	-29.90276979060096	1.354499183657559	20.37544592204116	-34.17994193626637	-0.5965525249283341	0.5274188046638426	0	0	31.44008831838659	5.626073430450917	-6.081660728117691	58.57312037625531	1.022293803732635	-1.463055772287929	0	0	-8.188868148237312	4.416680003330102	0.5012493778171484	15.80028973155615	-12.09364384638909	21.21885984507254	2.387765258119432	45.00000025534055	0	0	-10.42512842135539	5.86655424444952	16.49034832458767	69.43431927313233	45.00000025534055	0	0
126.775	-2.947576259587279	0.8775148985487683	-1985.580819365028	0	0.9399999999999999	0	-30.38388981340595	0.8651242286659506	20.18812079648193	-34.06439514387618	-0.5945358529610069	0.6124705539778528	0	0	30.78347495092491	4.172908122770226	-4.767840114171274	52.63112410676339	0.9185864046887808	-1.498176493293323	0	0	-8.436038144948864	4.319413177333699	-0.02675938490180171	16.84536401574271	-12.09216487131272	22.39464458094519	3.043883227681747	45.00000025534055	0	0	-10.40688393426868	6.013546135479437	15.70146393800757	69.58468007008375	45.00000025534055	0	0
126.8	-2.657733634440594	1.079987357648998	-1985.802728917052	0	0.9399999999999999	0	-30.64037062447265	0.5390673906600481	20.29242284209908	-33.97958356993709	-0.5930556117519711	0.6550839415538932	0	0	29.84837129818657	2.238878886670228	-3.896613611614428	45.41553368234608	0.7926505943073237	-2.061787962872403	0	0	-8.173175822948838	4.325855869873508	-0.6439553273399117	17.47937751119197	-11.99943329627924	23.51037139420029	4.016433112689103	45.00000025534055	0	0	-10.64636710928026	6.085833474673945	14.81074342236433	69.89787022410442	45.00000025534055	0	0
126.825	-2.267331994622408	1.354536901659923	-1986.179593392551	0	0.9399999999999999	0	-30.8370761195282	0.2470282073430689	20.45268651386679	-33.82671570269122	-0.5903875641480291	0.579851905802081	0	0	28.38082917824675	-0.1397936586178533	-3.734703717452172	37.21007262690236	0.6494382822456617	-3.576534844729471	0	0	-7.735661064423577	4.218667539781031	-1.103048800034214	17.86609912241003	-11.84193368346305	24.52009422885353	5.191595043878996	45.00000025534055	0	0	-11.01259130263427	6.002514086342124	13.97458336904862	70.30096819894622	45.00000025534055	0	0
126.85	-1.9683028264461	1.564615766597023	-1986.87626128079	0	0.9399999999999999	0	-30.81362177928765	-0.111832686069888	20.39537125602945	-33.25457254263247	-0.5804017822122389	0.1672892548339333	0	0	25.95547984613171	-2.208617135266226	-3.787537530464656	27.99669660750184	0.4886345354828336	-6.151119737791674	0	0	-7.45322938540851	3.833564681284266	-1.237391638855475	18.11915815831819	-11.6605432689935	25.52860498291232	6.388672883245161	45.00000025534055	0	0	-11.24927538076218	5.731844861543325	13.08756108556248	70.79626727187139	45.00000025534055	0	0
126.875	-2.046107450707302	1.678006247025511	-1987.820441000125	0	0.9399999999999999	0	-31.02251552397988	-0.7171948477321209	20.34506891315613	-32.39753117486585	-0.5654435885189159	-0.4957625013032351	0	0	23.91065918543993	-4.006514601864875	-2.409020108890364	19.7443177077065	0.3446033525592977	-8.82074464458889	0	0	-7.499699479594311	3.186904067687986	-0.8835059088345556	18.2604202585482	-11.4737745825361	26.32356922443102	7.48684909799247	45.00000025534055	0	0	-11.51538156776969	5.324917362765339	12.40906675682787	71.28532548801674	45.00000025534055	0	0
126.9	-2.465654827047951	1.775267484201808	-1989.062629366598	0	0.9399999999999999	0	-31.33531164588253	-1.659021562231263	20.47989780905669	-31.1109131335507	-0.542987867482406	-1.554146114797135	0	0	22.59309801904621	-5.315988670497341	-0.1861325950241622	13.34761909644868	0.2329599005351001	-10.89467352911551	0	0	-7.613125102433814	2.361724365423848	-0.2023089787766838	18.08399794739419	-11.22600264683158	27.06500833910169	8.439913018635121	45.00000025534055	0	0	-12.06593902456855	4.977513172848337	11.78692145737441	71.73468837594399	45.00000025534055	0	0
126.925	-3.309042817021481	1.875399762573769	-1990.312934066518	0	0.9399999999999999	0	-31.93820707998897	-2.943413498692366	20.60405285437433	-29.47802427071753	-0.5144885805068211	-3.222965119494097	0	0	21.97639976147809	-6.28533719744402	2.280109227718336	9.355760502582859	0.1632888247981103	-11.4238816654357	0	0	-7.470534047166959	1.418608236660392	0.3551115820565743	17.06688321585502	-10.94281084319685	27.83243210733962	9.323592401488254	45.00000025534055	0	0	-13.20758072894502	4.699262904950066	11.11911851425692	72.0979509587136	45.00000025534055	0	0
126.95	-4.348259738173131	1.978848769786919	-1991.447833900546	0	0.9399999999999999	0	-32.53633174369186	-4.427784924640199	20.58039107729374	-27.43499495654078	-0.4788309922596753	-5.982280534663843	0	0	21.40880484791017	-7.023544643013564	4.147371886223379	7.187856942438438	0.1254517698078833	-9.921507670277272	0	0	-7.58804957663731	0.3690454395055067	1.129699204887556	15.69037959963482	-10.73123435461099	28.01118304958672	10.18659049001603	45.00000025534055	0	0	-14.18281245178087	4.325615339278625	10.74499749629698	72.23776950175775	45.00000025534055	0	0
126.975	-5.005123050180363	1.858089452334155	-1992.543705802274	0	0.9399999999999999	0	-31.95140804424991	-6.282165362630569	20.03755231094772	-24.37261386520332	-0.4253823592650193	-10.49007550774549	0	0	20.05961969631013	-7.261174535174407	5.745891116805605	5.780383652048473	0.1008867267567001	-8.006326276039212	0	0	-7.339232628210781	-0.9871303149341559	1.966259978563453	14.03412284572157	-10.57410716383895	27.60396991396213	11.16352036179778	45.00000025534055	0	0	-14.97026780334594	3.904144295385603	10.36357118508678	72.02891206925584	45.00000025534055	0	0
127	-5.096821558913233	1.322085355193859	-1993.245387928166	0	0.9399999999999999	0	-29.79028869635965	-8.696359246704091	18.5373177240124	-20.07082733340811	-0.3503020205672451	-17.05224303684819	0	0	18.40561827505926	-6.214346081012157	6.530252393943539	5.317135194929799	0.09280151592519549	-8.729156947779231	0	0	-7.043444196149072	-2.575522263821988	1.974406816570828	12.81838433736551	-10.25609772527772	27.36466287104016	11.91308138719335	45.00000025534055	0	0	-15.01168403684677	3.67720098841799	9.517551805865356	71.51104165188146	45.00000025534055	0	0
127.025	-5.384095353580094	0.822194490707814	-1993.768987888863	0	0.9399999999999999	0	-26.40174634157726	-11.63075859555168	16.72553802319667	-13.95459013836886	-0.2435535436808677	-24.62720228711196	0	0	17.26299537910943	-4.858134367261074	6.210895574360904	5.803449433161961	0.1012893005816748	-12.14641656398577	0	0	-7.398967385467366	-3.982511388669863	1.523797586892811	12.00494210101814	-9.924603666108387	27.28559338215926	12.43475734827546	45.00000025534055	0	0	-14.44041709475406	3.72889913486868	8.488287764919193	70.8044689622259	45.00000025534055	0	0
127.05	-5.445762570579645	0.349346380803016	-1994.023717166544	0	0.9399999999999999	0	-22.22617912315279	-14.59346436774335	15.3048960649138	-7.13274369728279	-0.1244898622184584	-31.609795544581	0	0	16.41347182793596	-3.56977893656454	5.860755771480872	5.997502664762621	0.1046761683972414	-13.88252622575587	0	0	-7.865494199339553	-4.985790034351249	0.5057382192524187	11.3996428268565	-9.652471928690947	27.41048448225575	12.77524265814407	45.00000025534055	0	0	-13.50935099953581	4.077984438153826	7.458311328717541	70.27528643496196	45.00000025534055	0	0
127.075	-4.387626073875938	-0.3491071044882365	-1993.76996209608	0	0.9399999999999999	0	-15.65772462504303	-17.13313888861907	13.80540053731863	1.722675495005329	0.03006635933126612	-35.91539928072794	0	0	16.61233010689443	-1.66130124113983	6.710388854625242	6.221259200054497	0.1085814566609396	-14.23846099707123	0	0	-7.365928231161225	-5.833795784799256	-1.082406394124758	10.78518300785735	-8.969341710751506	27.56001990601819	12.50455188378025	45.00000025534055	0	0	-12.52193366181571	4.339254083402503	6.718053664051383	70.05889132032144	45.00000025534055	0	0
127.1	-3.472262617656834	-1.255801960854531	-1993.405366763031	0	0.9399999999999999	0	3.933053594061901	-21.28747703940936	15.86856119596703	32.27700180537238	0.563339954175902	-28.38910473466462	0	0	15.95214817360953	0.003642864928363359	8.875486204109473	6.118455740306529	0.1067871978058961	-14.03133009762926	0	0	-6.772510073948642	-6.951071308113777	-2.745852869399209	9.744334395734956	-8.090956387605839	27.62424601675799	11.88848409786199	45.00000025534055	0	0	-11.83191993569165	4.412799059563027	6.27014706274008	70.04665928802177	45.00000025534055	0	0
127.125	-2.481265446691729	-2.057620545617452	-1993.38757031564	0	0.9399999999999999	0	15.54897928671395	-23.73542287167787	19.94527180031305	50.14563476889525	0.8752064322197679	-24.29817248344096	0	0	15.07179691326536	0.9761005702628772	9.604271880765276	5.319407627360192	0.09284117735313495	-13.53482332658889	0	0	-5.658553601961779	-8.155030912901481	-3.949546436096753	8.126788087364703	-6.875027469017712	27.68607013997181	10.75029858552029	45.00000025534055	0	0	-11.71627116529419	4.137009902937612	5.961728583410925	70.13462718205841	45.00000025534055	0	0
